# Blender v2.79 (sub 0) OBJ File: 'navmesh.blend'
# www.blender.org
mtllib navmesh.mtl
o obj
v 0.000000 0.063333 0.000000
v 0.000000 0.063334 -1.500000
v 5.000000 0.063334 -1.500000
v 9.333333 0.063333 0.000000
v 5.000000 0.063334 -3.666667
v 0.000000 0.063334 -5.333333
v 0.000000 0.063335 -9.333333
v 9.333333 0.063335 -9.333333
v 5.333333 0.063334 -1.833333
v 5.333333 0.063334 -3.333333
v 0.000000 0.063334 -3.666667
v -0.333333 0.063334 -5.666667
v -1.833333 0.063334 -5.666667
v -9.333334 0.063334 -5.666667
v -9.333334 0.063335 -9.333333
v -5.666667 0.063334 -1.500000
v -2.166667 0.063334 -1.500000
v -2.166667 0.063333 0.000000
v -9.333334 0.063333 0.000000
v -2.166667 0.063334 -5.333333
v -2.166667 0.063334 -3.666667
v -5.666667 0.063334 -3.666667
v -6.000000 0.063334 -3.333333
v -6.000000 0.063334 -1.833333
v 9.333333 0.063332 9.333334
v 0.000000 0.063332 9.333334
v 0.000000 0.063332 5.666667
v -2.166667 0.063332 5.666667
v -1.833333 0.063332 6.000000
v -9.333334 0.063332 6.000000
v -0.333333 0.063332 6.000000
v -9.333334 0.063332 9.333334
vn 0.0000 -1.0000 -0.0000
usemtl None
s off
f 1//1 2//1 3//1
f 1//1 3//1 4//1
f 5//1 6//1 7//1
f 5//1 7//1 8//1
f 4//1 3//1 9//1
f 4//1 9//1 10//1
f 5//1 11//1 6//1
f 4//1 10//1 5//1
f 4//1 5//1 8//1
f 12//1 7//1 6//1
f 7//1 12//1 13//1
f 13//1 14//1 15//1
f 13//1 15//1 7//1
f 16//1 17//1 18//1
f 16//1 18//1 19//1
f 20//1 21//1 22//1
f 14//1 22//1 23//1
f 24//1 16//1 19//1
f 13//1 20//1 22//1
f 13//1 22//1 14//1
f 19//1 14//1 23//1
f 19//1 23//1 24//1
f 25//1 26//1 27//1
f 27//1 1//1 4//1
f 27//1 4//1 25//1
f 28//1 29//1 30//1
f 19//1 18//1 28//1
f 19//1 28//1 30//1
f 27//1 26//1 31//1
f 29//1 31//1 26//1
f 32//1 30//1 29//1
f 32//1 29//1 26//1
